# xmcd
#
# Track frame offsets: 
#        150
#        25285
#        44592
#        68077
#        91292
#        118849
#        134736
#        154163
#        180010
#        201192
#        228592
#        256389
#
# Disc length: 4460 seconds
#
# Revision: 0
# Processed by: cddbd v1.5.2PL0 Copyright (c) Steve Scherf et al.
# Submitted via: ExactAudioCopy v1.0b1
#
DISCID=a7116a0c
DTITLE=Blindside Blues Band - Raised On Rock
DYEAR=2010
DGENRE=Blues Rock
TTITLE0=Raised On Rock
TTITLE1=Night Train
TTITLE2=Folsom Prison Blues
TTITLE3=Wave On
TTITLE4=Child Of The Sun
TTITLE5=War In The Streets
TTITLE6=Take You Down
TTITLE7=Bury The Axe
TTITLE8=World On Fire
TTITLE9=Love Is Worth The Blues
TTITLE10=Backstreet Rider
TTITLE11=Born With The Blues
EXTD=
EXTT0=
EXTT1=
EXTT2=
EXTT3=
EXTT4=
EXTT5=
EXTT6=
EXTT7=
EXTT8=
EXTT9=
EXTT10=
EXTT11=
PLAYORDER=
